<?xml version="1.0" standalone="no"?>
<!-- Generator: Adobe Fireworks 10, Export SVG Extension by Aaron Beall (http://fireworks.abeall.com) . Version: 0.6.1  -->
<!DOCTYPE svg PUBLIC "-//W3C//DTD SVG 1.1//EN" "http://www.w3.org/Graphics/SVG/1.1/DTD/svg11.dtd">
<svg id="Untitled-P%E1gina%201" viewBox="0 0 56 56" style="background-color:#ffffff00" version="1.1"
	xmlns="http://www.w3.org/2000/svg" xmlns:xlink="http://www.w3.org/1999/xlink" xml:space="preserve"
	x="0px" y="0px" width="56px" height="56px"
>
	<g id="Capa%201">
		<path d="M 41.5886 28.4047 L 41.5886 43.7734 L 51.5332 43.7734 L 51.5332 28.4047 L 41.5886 28.4047 ZM 46.7625 29.0407 C 46.8777 29.0407 46.9785 29.1385 46.9785 29.2609 C 46.9785 29.382 46.8777 29.4811 46.7625 29.4811 C 46.6425 29.4811 46.5417 29.382 46.5417 29.2609 C 46.5417 29.1385 46.6425 29.0407 46.7625 29.0407 ZM 45.4714 29.7795 L 48.0488 29.7795 L 48.0488 29.9899 L 45.4714 29.9899 L 45.4714 29.7795 ZM 46.6761 43.1116 C 46.3881 43.1116 46.1577 42.8732 46.1577 42.5833 C 46.1577 42.2909 46.3881 42.056 46.6761 42.056 C 46.9592 42.056 47.1896 42.2909 47.1896 42.5833 C 47.1896 42.8732 46.9592 43.1116 46.6761 43.1116 ZM 50.0933 41.3025 C 47.7656 41.3123 44.1804 41.322 43.0285 41.3123 L 43.0285 30.7423 L 50.0933 30.7423 L 50.0933 41.3025 ZM 3.5332 43.1863 L 17.807 43.1863 L 17.807 21.3582 L 3.5332 21.3582 L 3.5332 43.1863 ZM 10.9731 42.0903 C 10.5933 42.0903 10.2861 41.7771 10.2861 41.3893 C 10.2861 41.004 10.5933 40.6909 10.9731 40.6909 C 11.3511 40.6909 11.6582 41.004 11.6582 41.3893 C 11.6582 41.782 11.3511 42.0903 10.9731 42.0903 ZM 5.5976 23.4628 L 15.7473 23.4628 L 15.7438 39.5692 L 5.5976 39.5692 L 5.5976 23.4628 ZM 12.8586 14.5618 L 44.7755 14.5618 L 44.7755 27.5673 L 47.5112 27.5673 L 47.5112 11.7734 L 10.1277 11.7734 L 10.1277 20.4823 L 12.8586 20.4823 L 12.8586 14.5618 ZM 18.6901 36.1893 L 25.3854 36.1893 L 25.3854 37.7649 L 18.6901 37.7649 L 18.6901 39.0615 L 39.7408 39.0615 L 39.7408 37.7649 L 31.9368 37.7649 L 31.9368 36.1893 L 40.6191 36.1893 L 40.6191 32.593 L 18.6901 32.593 L 18.6901 36.1893 Z" fill="#212121"/>
	</g>
</svg>