<?xml version="1.0" standalone="no"?>
<!-- Generator: Adobe Fireworks 10, Export SVG Extension by Aaron Beall (http://fireworks.abeall.com) . Version: 0.6.1  -->
<!DOCTYPE svg PUBLIC "-//W3C//DTD SVG 1.1//EN" "http://www.w3.org/Graphics/SVG/1.1/DTD/svg11.dtd">
<svg id="Untitled-P%E1gina%201" viewBox="0 0 56 56" style="background-color:#ffffff00" version="1.1"
	xmlns="http://www.w3.org/2000/svg" xmlns:xlink="http://www.w3.org/1999/xlink" xml:space="preserve"
	x="0px" y="0px" width="56px" height="56px"
>
	<g id="Capa%201">
		<path d="M 14.9371 15.1116 C 14.6205 14.7952 14.1029 14.7952 13.7778 15.1116 L 7.0225 21.8337 C 6.6973 22.1492 6.6973 22.6637 7.0225 22.9852 L 31.7341 47.5493 C 32.0516 47.8647 32.576 47.8647 32.8934 47.5493 L 39.6495 40.834 C 39.9739 40.5116 39.9739 39.9971 39.6495 39.6816 L 14.9371 15.1116 ZM 32.3138 45.8207 L 30.8991 44.4146 L 33.004 42.3224 L 32.5139 41.8354 L 30.4091 43.9275 L 28.9461 42.4734 L 31.051 40.3812 L 30.5609 39.8875 L 28.4561 41.9863 L 27.132 40.6693 L 29.2429 38.5773 L 28.7529 38.0903 L 26.6411 40.1824 L 25.4128 38.9614 L 29.6293 34.7703 L 29.1393 34.2833 L 24.9238 38.4744 L 23.7703 37.3357 L 25.8812 35.2368 L 25.3921 34.7498 L 23.2804 36.8419 L 21.8182 35.3945 L 23.9291 33.2956 L 23.4399 32.8086 L 21.3265 34.9075 L 20.0084 33.5906 L 22.115 31.4985 L 21.6233 31.0115 L 19.5193 33.1035 L 18.1736 31.766 L 22.3901 27.575 L 21.9009 27.087 L 17.6837 31.2789 L 16.3586 29.962 L 18.4704 27.8699 L 17.9804 27.3829 L 15.8695 29.475 L 14.4048 28.0209 L 16.5182 25.9278 L 16.0266 25.4418 L 13.9157 27.5338 L 12.5908 26.2159 L 14.7017 24.1247 L 14.2125 23.6385 L 12.1085 25.7299 L 10.7551 24.3914 L 14.9724 20.202 L 14.4807 19.721 L 10.2659 23.9052 L 8.7606 22.4022 L 14.3574 16.8392 L 37.9105 40.2578 L 32.3138 45.8207 ZM 46.2193 30.7783 L 46.2055 30.7302 L 46.1917 30.6959 L 23.4589 8.1296 C 23.226 7.8887 22.9146 7.7859 22.5704 7.7859 C 20.4648 7.7859 16.8555 11.6202 18.4014 13.1567 L 41.1747 35.7924 C 41.1747 35.7924 48.2413 38.7488 48.7244 38.2617 C 49.2144 37.7747 46.2193 30.7783 46.2193 30.7783 ZM 41.1747 34.0845 L 19.2562 12.3002 C 19.2295 12.2719 19.2295 12.0669 19.3606 11.7368 C 19.5193 11.3518 19.7876 10.9694 20.099 10.6128 L 39.8635 30.257 C 39.9532 30.3461 40.0705 30.3873 40.1809 30.3873 C 40.2983 30.3873 40.4156 30.3461 40.5053 30.257 C 40.6848 30.0786 40.6848 29.7905 40.5053 29.6122 L 20.7399 9.9663 C 21.4023 9.3978 22.1219 8.9939 22.5704 8.9939 L 22.6326 9.0009 L 44.5148 30.7645 L 41.1747 34.0845 Z" fill="#212121"/>
	</g>
</svg>