<?xml version="1.0" standalone="no"?>
<!-- Generator: Adobe Fireworks 10, Export SVG Extension by Aaron Beall (http://fireworks.abeall.com) . Version: 0.6.1  -->
<!DOCTYPE svg PUBLIC "-//W3C//DTD SVG 1.1//EN" "http://www.w3.org/Graphics/SVG/1.1/DTD/svg11.dtd">
<svg id="Untitled-P%E1gina%201" viewBox="0 0 56 56" style="background-color:#ffffff00" version="1.1"
	xmlns="http://www.w3.org/2000/svg" xmlns:xlink="http://www.w3.org/1999/xlink" xml:space="preserve"
	x="0px" y="0px" width="56px" height="56px"
>
	<g id="Capa%201">
		<path d="M 33.9052 8.1602 L 31.0284 11.3062 L 27.9873 8.1602 L 26.7959 9.3798 L 29.8463 12.5269 L 26.7959 15.4939 L 27.9873 16.723 L 31.0284 13.7465 L 33.9052 16.723 L 35.0956 15.4939 L 32.2188 12.5269 L 35.0956 9.3798 L 33.9052 8.1602 ZM 43.5605 21.609 L 42.3702 20.3915 L 39.4934 23.528 L 36.4513 20.3915 L 35.2609 21.609 L 38.3113 24.7582 L 35.2609 27.7252 L 36.4513 28.9448 L 39.4934 25.9757 L 42.3702 28.9448 L 43.5605 27.7252 L 40.6837 24.7582 L 43.5605 21.609 ZM 31.0284 39.5973 L 31.0284 33.141 L 16.9762 18.6421 L 22.5634 18.6421 L 22.5634 16.8937 L 14.0984 16.8937 L 14.0984 25.6271 L 15.7931 25.6271 L 15.7931 19.8606 L 29.3337 33.8403 L 29.3337 39.5973 C 27.4747 39.9469 25.9527 41.6953 25.9527 43.7935 C 25.9527 46.2412 27.8137 48.1602 30.1852 48.1602 C 32.5577 48.1602 34.4177 46.2412 34.4177 43.7935 C 34.4177 41.8744 32.8884 40.1261 31.0284 39.5973 ZM 30.1852 46.5908 C 28.8295 46.5908 27.6484 45.3627 27.6484 43.964 C 27.6484 42.5739 28.6559 41.3457 30.1852 41.3457 C 31.7062 41.3457 32.723 42.5739 32.723 43.964 C 32.723 45.3627 31.5409 46.5908 30.1852 46.5908 ZM 18.6688 32.6122 L 15.7931 35.7593 L 12.7437 32.6122 L 11.5605 33.8403 L 14.6099 36.9789 L 11.5605 39.9469 L 12.7437 41.175 L 15.7931 38.207 L 18.6688 41.175 L 19.8602 39.9469 L 16.9762 36.9789 L 19.8602 33.8403 L 18.6688 32.6122 Z" fill="#212121"/>
	</g>
</svg>