<?xml version="1.0" standalone="no"?>
<!-- Generator: Adobe Fireworks 10, Export SVG Extension by Aaron Beall (http://fireworks.abeall.com) . Version: 0.6.1  -->
<!DOCTYPE svg PUBLIC "-//W3C//DTD SVG 1.1//EN" "http://www.w3.org/Graphics/SVG/1.1/DTD/svg11.dtd">
<svg id="Untitled-P%E1gina%201" viewBox="0 0 56 56" style="background-color:#ffffff00" version="1.1"
	xmlns="http://www.w3.org/2000/svg" xmlns:xlink="http://www.w3.org/1999/xlink" xml:space="preserve"
	x="0px" y="0px" width="56px" height="56px"
>
	<path d="M 35.9399 33.4746 C 35.8726 33.4053 35.802 33.3486 35.6918 33.2604 C 35.4436 33.0526 35.0823 33.0746 34.8555 33.3077 L 33.9856 34.2021 L 29.8474 29.9502 L 35.998 23.6223 C 36.77 23.9152 37.5756 24.0668 38.4058 24.0668 C 40.2527 24.0668 41.9895 23.3265 43.2974 21.9817 C 45.3313 19.8931 45.8918 16.6746 44.6912 13.9813 C 44.6084 13.7896 44.437 13.651 44.2347 13.6163 C 44.0326 13.5781 43.8242 13.6443 43.6804 13.7927 L 41.1716 16.3723 L 39.1101 16.2116 L 38.954 14.0919 L 41.4626 11.5125 C 41.6067 11.3644 41.6709 11.1498 41.6343 10.9427 C 41.5974 10.7345 41.4657 10.5581 41.2788 10.4698 C 40.3783 10.0475 39.3798 9.8242 38.3873 9.8242 C 36.5403 9.8242 34.8035 10.5643 33.4985 11.9061 C 31.5627 13.8967 30.9592 16.7971 31.8997 19.4113 L 25.7493 25.7356 L 18.6667 18.4541 L 19.1112 17.9978 C 19.2273 17.8774 19.2949 17.714 19.2949 17.5404 C 19.2949 17.3702 19.2273 17.2065 19.1112 17.0841 L 14.3875 12.2301 C 14.1523 11.9876 13.7351 11.9876 13.5022 12.2301 L 11.7261 14.0541 C 11.4807 14.3057 11.4807 14.7151 11.7261 14.9675 L 16.449 19.8207 C 16.5723 19.9467 16.7346 20.01 16.8939 20.01 C 17.0527 20.01 17.2151 19.9467 17.3376 19.8207 L 17.7822 19.3644 L 24.8638 26.649 L 19.635 32.0226 C 18.8657 31.7297 18.0575 31.5817 17.2271 31.5817 C 15.3804 31.5817 13.6436 32.3219 12.3386 33.6636 C 10.3044 35.7549 9.7416 38.9707 10.9419 41.6667 C 11.0277 41.8589 11.1992 41.9943 11.4014 42.0321 C 11.6008 42.0699 11.8083 42.0038 11.9558 41.8525 L 14.4645 39.2731 L 16.5229 39.4368 L 16.6821 41.5533 L 14.1735 44.1329 C 14.0261 44.2841 13.9617 44.4982 13.9985 44.7061 C 14.0356 44.9139 14.1704 45.0903 14.3538 45.1754 C 15.2548 45.6006 16.2529 45.8242 17.2458 45.8242 C 19.0925 45.8242 20.8326 45.0841 22.1376 43.7423 C 24.0735 41.7518 24.6765 38.8478 23.733 36.2368 L 28.9622 30.8605 L 33.0974 35.1156 L 32.2274 36.01 C 32.0038 36.24 32.0129 36.6494 32.2059 36.9077 C 32.2642 36.9801 32.3224 37.0557 32.3898 37.125 L 39.4808 44.4164 C 40.0077 44.9581 40.7183 45.2699 41.4259 45.2699 C 42.0508 45.2699 42.6296 45.0305 43.0554 44.5927 L 43.2025 44.4415 C 43.6681 43.9628 43.8978 43.3108 43.855 42.6022 C 43.812 41.9219 43.521 41.2731 43.031 40.7691 L 35.9399 33.4746 ZM 13.0586 14.5073 L 13.9437 13.5943 L 17.7791 17.5404 L 17.3376 17.9943 L 16.8939 18.4506 L 13.0586 14.5073 ZM 22.5537 35.6258 C 22.3704 35.8148 22.3186 36.0983 22.4229 36.3439 C 23.3782 38.5675 22.9182 41.1124 21.2488 42.829 C 20.1833 43.9282 18.7593 44.5328 17.2458 44.5328 C 16.7465 44.5328 16.2415 44.4636 15.7576 44.3281 L 17.7727 42.2557 C 17.9043 42.1234 17.9688 41.9376 17.9564 41.7518 L 17.7328 38.7849 C 17.7083 38.4698 17.4629 38.2179 17.1573 38.1927 L 14.2715 37.9628 C 14.0903 37.9502 13.91 38.0164 13.7815 38.1517 L 11.7664 40.2242 C 11.2456 38.2336 11.7813 36.0604 13.2239 34.577 C 14.2925 33.4778 15.7142 32.873 17.2271 32.873 C 18.0269 32.873 18.8015 33.04 19.5308 33.3707 C 19.7667 33.4778 20.045 33.4242 20.2296 33.2352 L 33.082 20.0191 C 33.2659 19.8305 33.3148 19.5466 33.2107 19.3046 C 32.2549 17.0778 32.7136 14.5328 34.3838 12.8163 C 35.4529 11.7167 36.8741 11.112 38.3873 11.112 C 38.8896 11.112 39.392 11.1813 39.876 11.3168 L 37.8605 13.3896 C 37.7318 13.5219 37.6644 13.7073 37.6797 13.8936 L 37.9003 16.86 C 37.9248 17.1754 38.1698 17.427 38.4792 17.4526 L 41.3616 17.6825 C 41.5454 17.6954 41.723 17.6285 41.8547 17.4935 L 43.8702 15.4207 C 44.391 17.4116 43.8518 19.5876 42.4092 21.0679 C 41.3394 22.1703 39.9188 22.775 38.4058 22.775 C 37.6062 22.775 36.8306 22.608 36.1023 22.2742 C 35.8665 22.1671 35.5876 22.2211 35.407 22.4097 L 22.5537 35.6258 ZM 42.3142 43.5282 L 42.1702 43.6793 C 41.9275 43.9282 41.6311 43.9785 41.4259 43.9785 C 41.0461 43.9785 40.6632 43.8053 40.3691 43.5029 L 33.5415 36.4825 L 35.3149 34.6589 L 42.1458 41.6793 C 42.4183 41.9628 42.5807 42.3156 42.6052 42.6809 C 42.6235 43.0148 42.5225 43.3171 42.3142 43.5282 Z" fill="#212121"/>
</svg>